<svg width="235" height="113" viewBox="0 0 235 113" fill="none" xmlns="http://www.w3.org/2000/svg">
<rect width="235" height="113" fill="black" fill-opacity="0"/>
<rect width="186.963" height="113" fill="black" fill-opacity="0"/>
<path d="M93.5035 27.9223C90.6292 27.9223 88.321 30.2382 88.321 33.1222C88.321 36.0062 90.6292 38.3221 93.5035 38.3221C96.3779 38.3221 98.6861 36.0062 98.6861 33.1222C98.6425 30.2382 96.3343 27.9223 93.5035 27.9223Z" fill="#F36E21"/>
<path d="M79.785 32.3794C76.9107 32.3794 74.6025 34.6953 74.6025 37.5793C74.6025 40.4633 76.9107 42.7792 79.785 42.7792C82.6594 42.7792 84.9676 40.4633 84.9676 37.5793C84.9676 34.739 82.6594 32.3794 79.785 32.3794Z" fill="#F36E21"/>
<path d="M71.3362 44.0901C68.4618 44.0901 66.1536 46.406 66.1536 49.29C66.1536 52.174 68.4618 54.4899 71.3362 54.4899C74.2105 54.4899 76.5187 52.174 76.5187 49.29C76.5187 46.406 74.167 44.0901 71.3362 44.0901Z" fill="#F36E21"/>
<path d="M84.0966 98.3179C80.7431 98.3179 77.9995 95.565 77.9995 92.2003C77.9995 88.8357 80.7431 86.0828 84.0966 86.0828C87.45 86.0828 90.1937 88.8357 90.1937 92.2003C90.1937 95.6087 87.45 98.3179 84.0966 98.3179Z" fill="#F36E21"/>
<path d="M48.6027 89.797C45.5106 89.797 42.9846 87.2626 42.9846 84.1601C42.9846 81.0576 45.5106 78.5232 48.6027 78.5232C51.6948 78.5232 54.2207 81.0576 54.2207 84.1601C54.2207 87.2626 51.6948 89.797 48.6027 89.797Z" fill="#F36E21"/>
<path d="M66.894 93.6423C63.5406 93.6423 60.7969 90.8894 60.7969 87.5247C60.7969 84.1601 63.5406 81.4072 66.894 81.4072C70.2474 81.4072 72.9911 84.1164 72.9911 87.5247C72.9476 90.8894 70.2474 93.6423 66.894 93.6423Z" fill="#F36E21"/>
<path d="M93.5035 85.0777C90.6292 85.0777 88.321 82.7618 88.321 79.8778C88.321 76.9938 90.6292 74.6779 93.5035 74.6779C96.3779 74.6779 98.6861 76.9938 98.6861 79.8778C98.6425 82.7618 96.3343 85.0777 93.5035 85.0777Z" fill="#F36E21"/>
<path d="M79.785 80.6207C76.9107 80.6207 74.6025 78.3047 74.6025 75.4208C74.6025 72.5368 76.9107 70.2208 79.785 70.2208C82.6594 70.2208 84.9676 72.5368 84.9676 75.4208C84.9676 78.3047 82.6594 80.6207 79.785 80.6207Z" fill="#F36E21"/>
<path d="M71.3362 68.9099C68.4618 68.9099 66.1536 66.594 66.1536 63.71C66.1536 60.826 68.4618 58.51 71.3362 58.51C74.2105 58.51 76.5187 60.826 76.5187 63.71C76.5187 66.594 74.167 68.9099 71.3362 68.9099Z" fill="#F36E21"/>
<path d="M16.1573 73.7165C13.8927 73.7165 12.0636 71.8813 12.0636 69.609C12.0636 67.3368 13.8927 65.4578 16.1573 65.4578C18.422 65.4578 20.2511 67.2931 20.2511 69.609C20.2947 71.8813 18.4655 73.7165 16.1573 73.7165Z" fill="#F36E21"/>
<path d="M30.6598 81.8879C27.9161 81.8879 25.695 79.6593 25.695 76.9064C25.695 74.1535 27.9161 71.925 30.6598 71.925C33.4035 71.925 35.6245 74.1535 35.6245 76.9064C35.6245 79.6593 33.4035 81.8879 30.6598 81.8879Z" fill="#F36E21"/>
<path d="M107.178 32.3794C110.053 32.3794 112.361 34.6953 112.361 37.5793C112.361 40.4633 110.053 42.7792 107.178 42.7792C104.304 42.7792 101.996 40.4633 101.996 37.5793C101.996 34.739 104.304 32.3794 107.178 32.3794Z" fill="#F36E21"/>
<path d="M115.671 44.0901C118.545 44.0901 120.853 46.406 120.853 49.29C120.853 52.174 118.545 54.4899 115.671 54.4899C112.797 54.4899 110.488 52.174 110.488 49.29C110.488 46.406 112.797 44.0901 115.671 44.0901Z" fill="#F36E21"/>
<path d="M102.867 98.3179C106.22 98.3179 108.964 95.565 108.964 92.2003C108.964 88.8357 106.22 86.0828 102.867 86.0828C99.5135 86.0828 96.7698 88.8357 96.7698 92.2003C96.7698 95.6087 99.5135 98.3179 102.867 98.3179Z" fill="#F36E21"/>
<path d="M138.361 89.797C141.496 89.797 143.979 87.2626 143.979 84.1601C143.979 81.0576 141.453 78.5232 138.361 78.5232C135.269 78.5232 132.743 81.0576 132.743 84.1601C132.743 87.2626 135.269 89.797 138.361 89.797Z" fill="#F36E21"/>
<path d="M120.113 93.6423C123.466 93.6423 126.21 90.8894 126.21 87.5247C126.21 84.1601 123.466 81.4072 120.113 81.4072C116.76 81.4072 114.016 84.1164 114.016 87.5247C114.016 90.8894 116.716 93.6423 120.113 93.6423Z" fill="#F36E21"/>
<path d="M107.178 80.6207C110.053 80.6207 112.361 78.3047 112.361 75.4208C112.361 72.5368 110.053 70.2208 107.178 70.2208C104.304 70.2208 101.996 72.5368 101.996 75.4208C101.996 78.3047 104.304 80.6207 107.178 80.6207Z" fill="#F36E21"/>
<path d="M115.671 68.9099C118.545 68.9099 120.853 66.594 120.853 63.71C120.853 60.826 118.545 58.51 115.671 58.51C112.797 58.51 110.488 60.826 110.488 63.71C110.488 66.594 112.797 68.9099 115.671 68.9099Z" fill="#F36E21"/>
<path d="M170.806 73.7165C173.071 73.7165 174.9 71.8813 174.9 69.609C174.9 67.3368 173.071 65.4578 170.806 65.4578C168.542 65.4578 166.712 67.2931 166.712 69.609C166.669 71.8813 168.542 73.7165 170.806 73.7165Z" fill="#F36E21"/>
<path d="M156.304 81.8879C159.047 81.8879 161.269 79.6593 161.269 76.9064C161.269 74.1535 159.047 71.925 156.304 71.925C153.56 71.925 151.339 74.1535 151.339 76.9064C151.339 79.6593 153.56 81.8879 156.304 81.8879Z" fill="#F36E21"/>
<path d="M56.7467 50.6883C53.5239 50.6883 50.9544 53.3101 50.9544 56.5C50.9544 59.7336 53.5675 62.3117 56.7467 62.3117C59.9694 62.3117 62.5389 59.6899 62.5389 56.5C62.5389 53.3101 59.9259 50.6883 56.7467 50.6883Z" fill="#0061AF"/>
<path d="M41.4603 51.4312C38.6731 51.4312 36.4085 53.7034 36.4085 56.5C36.4085 59.2966 38.6731 61.5688 41.4603 61.5688C44.2476 61.5688 46.5122 59.2966 46.5122 56.5C46.5558 53.7034 44.2476 51.4312 41.4603 51.4312Z" fill="#0061AF"/>
<path d="M15.7654 52.5673C13.5878 52.5673 11.8458 54.3152 11.8458 56.5C11.8458 58.6848 13.6314 60.4764 15.7654 60.4764C17.9429 60.4764 19.7285 58.6848 19.7285 56.5C19.685 54.3152 17.9429 52.5673 15.7654 52.5673Z" fill="#0061AF"/>
<path d="M3.65827 52.8295C1.65493 52.8295 0 54.4899 0 56.5C0 58.5538 1.65493 60.1705 3.65827 60.1705C5.6616 60.1705 7.31653 58.5101 7.31653 56.5C7.31653 54.4899 5.6616 52.8295 3.65827 52.8295Z" fill="#0061AF"/>
<path d="M93.5035 0C90.1501 0 87.4064 2.7092 87.4064 6.11756C87.4064 9.48221 90.1066 12.2351 93.5035 12.2351C96.8569 12.2351 99.6006 9.52591 99.6006 6.11756C99.5571 2.7092 96.8569 0 93.5035 0Z" fill="#0061AF"/>
<path d="M84.0966 14.6821C80.7431 14.6821 77.9995 17.3913 77.9995 20.7997C77.9995 24.1643 80.7431 26.9172 84.0966 26.9172C87.45 26.9172 90.1937 24.208 90.1937 20.7997C90.1937 17.3913 87.45 14.6821 84.0966 14.6821Z" fill="#0061AF"/>
<path d="M48.6027 23.2467C45.5106 23.2467 42.9846 25.7811 42.9846 28.8836C42.9846 31.9861 45.5106 34.5205 48.6027 34.5205C51.6948 34.5205 54.2207 31.9861 54.2207 28.8836C54.2207 25.7374 51.6948 23.2467 48.6027 23.2467Z" fill="#0061AF"/>
<path d="M43.3766 37.7104C40.5022 37.7104 38.1505 40.07 38.1505 42.954C38.1505 45.838 40.5022 48.1976 43.3766 48.1976C46.2509 48.1976 48.6027 45.838 48.6027 42.954C48.6027 40.07 46.2945 37.7104 43.3766 37.7104Z" fill="#0061AF"/>
<path d="M35.189 15.2939C32.0969 15.2939 29.571 17.8283 29.571 20.9308C29.571 24.0332 32.0969 26.5677 35.189 26.5677C38.2811 26.5677 40.8071 24.0332 40.8071 20.9308C40.8071 17.8283 38.2811 15.2939 35.189 15.2939Z" fill="#0061AF"/>
<path d="M66.894 19.4014C63.5406 19.4014 60.7969 22.1543 60.7969 25.5189C60.7969 28.8836 63.5406 31.6365 66.894 31.6365C70.2474 31.6365 72.9911 28.9273 72.9911 25.5189C72.9476 22.1106 70.2474 19.4014 66.894 19.4014Z" fill="#0061AF"/>
<path d="M59.5775 34.4768C56.3112 34.4768 53.6546 37.1423 53.6546 40.4196C53.6546 43.6968 56.3112 46.3623 59.5775 46.3623C62.8438 46.3623 65.5004 43.6968 65.5004 40.4196C65.5004 37.1423 62.8438 34.4768 59.5775 34.4768Z" fill="#0061AF"/>
<path d="M73.3831 2.01004C70.0296 2.01004 67.2859 4.76294 67.2859 8.1276C67.2859 11.4923 70.0296 14.2452 73.3831 14.2452C76.7365 14.2452 79.4802 11.4923 79.4802 8.1276C79.4802 4.76294 76.7365 2.01004 73.3831 2.01004Z" fill="#0061AF"/>
<path d="M53.8288 7.38477C50.4754 7.38477 47.7317 10.1377 47.7317 13.5023C47.7317 16.867 50.4754 19.6199 53.8288 19.6199C57.1822 19.6199 59.9259 16.867 59.9259 13.5023C59.9259 10.094 57.1822 7.38477 53.8288 7.38477Z" fill="#0061AF"/>
<path d="M16.1573 39.2834C13.8927 39.2834 12.0636 41.1187 12.0636 43.3909C12.0636 45.6632 13.8927 47.4984 16.1573 47.4984C18.422 47.4984 20.2511 45.6632 20.2511 43.3909C20.2947 41.1187 18.4655 39.2834 16.1573 39.2834Z" fill="#0061AF"/>
<path d="M28.3516 45.4447C25.9563 45.4447 23.9529 47.4111 23.9529 49.8144C23.9529 52.2614 25.9127 54.2278 28.3516 54.2278C30.7904 54.2278 32.7502 52.2614 32.7502 49.8144C32.7502 47.4111 30.7904 45.4447 28.3516 45.4447Z" fill="#0061AF"/>
<path d="M3.65827 36.0499C1.65493 36.0499 0 37.7103 0 39.7204C0 41.7305 1.65493 43.3909 3.65827 43.3909C5.6616 43.3909 7.31653 41.7305 7.31653 39.7204C7.31653 37.6666 5.6616 36.0499 3.65827 36.0499Z" fill="#0061AF"/>
<path d="M30.6598 31.1558C27.9161 31.1558 25.695 33.3844 25.695 36.1373C25.695 38.8465 27.9161 41.075 30.6598 41.075C33.4035 41.075 35.6245 38.8465 35.6245 36.0936C35.6245 33.3407 33.4035 31.1558 30.6598 31.1558Z" fill="#0061AF"/>
<path d="M18.2478 24.9072C15.6783 24.9072 13.6314 26.9609 13.6314 29.5391C13.6314 32.1172 15.6783 34.1709 18.2478 34.1709C20.8173 34.1709 22.8642 32.1172 22.8642 29.5391C22.8642 27.0046 20.8173 24.9072 18.2478 24.9072Z" fill="#0061AF"/>
<path d="M93.5035 113C90.1501 113 87.4064 110.247 87.4064 106.882C87.4064 103.518 90.1066 100.765 93.5035 100.765C96.8569 100.765 99.6006 103.518 99.6006 106.882C99.5571 110.291 96.8569 113 93.5035 113Z" fill="#0061AF"/>
<path d="M43.3766 75.2896C40.5022 75.2896 38.1505 72.93 38.1505 70.046C38.1505 67.162 40.5022 64.8024 43.3766 64.8024C46.2509 64.8024 48.6027 67.162 48.6027 70.046C48.6027 72.93 46.2945 75.2896 43.3766 75.2896Z" fill="#0061AF"/>
<path d="M35.189 97.7498C32.0969 97.7498 29.571 95.2154 29.571 92.1129C29.571 89.0104 32.0969 86.476 35.189 86.476C38.2811 86.476 40.8071 89.0104 40.8071 92.1129C40.8071 95.2154 38.2811 97.7498 35.189 97.7498Z" fill="#0061AF"/>
<path d="M59.5775 78.5232C56.3112 78.5232 53.6546 75.8577 53.6546 72.5804C53.6546 69.3032 56.3112 66.6377 59.5775 66.6377C62.8438 66.6377 65.5004 69.3032 65.5004 72.5804C65.5004 75.8577 62.8438 78.5232 59.5775 78.5232Z" fill="#0061AF"/>
<path d="M73.3831 110.99C70.0296 110.99 67.2859 108.237 67.2859 104.872C67.2859 101.508 70.0296 98.7548 73.3831 98.7548C76.7365 98.7548 79.4802 101.508 79.4802 104.872C79.4802 108.237 76.7365 110.99 73.3831 110.99Z" fill="#0061AF"/>
<path d="M53.8288 105.659C50.4754 105.659 47.7317 102.906 47.7317 99.5414C47.7317 96.1767 50.4754 93.4238 53.8288 93.4238C57.1822 93.4238 59.9259 96.1767 59.9259 99.5414C59.9259 102.906 57.1822 105.659 53.8288 105.659Z" fill="#0061AF"/>
<path d="M28.3516 67.599C25.9127 67.599 23.9529 65.6326 23.9529 63.1856C23.9529 60.7386 25.9127 58.7722 28.3516 58.7722C30.7904 58.7722 32.7502 60.7386 32.7502 63.1856C32.7502 65.6326 30.7904 67.599 28.3516 67.599Z" fill="#0061AF"/>
<path d="M3.65827 76.9938C1.65493 76.9938 0 75.3333 0 73.3233C0 71.3132 1.65493 69.6527 3.65827 69.6527C5.6616 69.6527 7.31653 71.3132 7.31653 73.3233C7.31653 75.3333 5.6616 76.9938 3.65827 76.9938Z" fill="#0061AF"/>
<path d="M18.2478 88.0928C15.6783 88.0928 13.6314 86.0391 13.6314 83.4609C13.6314 80.8828 15.6783 78.8291 18.2478 78.8291C20.8173 78.8291 22.8642 80.8828 22.8642 83.4609C22.8642 85.9954 20.8173 88.0928 18.2478 88.0928Z" fill="#0061AF"/>
<path d="M130.26 50.6883C133.483 50.6883 136.053 53.3101 136.053 56.5C136.053 59.7336 133.44 62.3117 130.26 62.3117C127.038 62.3117 124.468 59.6899 124.468 56.5C124.468 53.3101 127.038 50.6883 130.26 50.6883Z" fill="#0061AF"/>
<path d="M145.503 51.4312C148.29 51.4312 150.555 53.7034 150.555 56.5C150.555 59.2966 148.29 61.5688 145.503 61.5688C142.716 61.5688 140.451 59.2966 140.451 56.5C140.451 53.7034 142.716 51.4312 145.503 51.4312Z" fill="#0061AF"/>
<path d="M171.198 52.5673C173.376 52.5673 175.161 54.3152 175.161 56.5C175.161 58.6848 173.376 60.4764 171.198 60.4764C169.021 60.4764 167.235 58.6848 167.235 56.5C167.279 54.3152 169.021 52.5673 171.198 52.5673Z" fill="#0061AF"/>
<path d="M183.305 52.8295C185.309 52.8295 186.963 54.4899 186.963 56.5C186.963 58.5538 185.352 60.1705 183.305 60.1705C181.302 60.1705 179.647 58.5101 179.647 56.5C179.647 54.4899 181.302 52.8295 183.305 52.8295Z" fill="#0061AF"/>
<path d="M102.867 14.6821C106.22 14.6821 108.964 17.3913 108.964 20.7997C108.964 24.1643 106.22 26.9172 102.867 26.9172C99.5135 26.9172 96.7698 24.208 96.7698 20.7997C96.7698 17.3913 99.5135 14.6821 102.867 14.6821Z" fill="#0061AF"/>
<path d="M138.361 23.2467C141.496 23.2467 143.979 25.7811 143.979 28.8836C143.979 31.9861 141.453 34.5205 138.361 34.5205C135.269 34.5205 132.743 31.9861 132.743 28.8836C132.743 25.7374 135.269 23.2467 138.361 23.2467Z" fill="#0061AF"/>
<path d="M143.587 37.7104C146.461 37.7104 148.813 40.07 148.813 42.954C148.813 45.838 146.461 48.1976 143.587 48.1976C140.713 48.1976 138.361 45.838 138.361 42.954C138.361 40.07 140.713 37.7104 143.587 37.7104Z" fill="#0061AF"/>
<path d="M151.818 15.2939C154.91 15.2939 157.436 17.8283 157.436 20.9308C157.436 24.0332 154.91 26.5677 151.818 26.5677C148.726 26.5677 146.2 24.0332 146.2 20.9308C146.156 17.8283 148.682 15.2939 151.818 15.2939Z" fill="#0061AF"/>
<path d="M120.113 19.4014C123.466 19.4014 126.21 22.1543 126.21 25.5189C126.21 28.8836 123.466 31.6365 120.113 31.6365C116.76 31.6365 114.016 28.9273 114.016 25.5189C114.016 22.1106 116.716 19.4014 120.113 19.4014Z" fill="#0061AF"/>
<path d="M127.386 34.4768C130.652 34.4768 133.309 37.1423 133.309 40.4196C133.309 43.6968 130.652 46.3623 127.386 46.3623C124.12 46.3623 121.463 43.6968 121.463 40.4196C121.463 37.1423 124.12 34.4768 127.386 34.4768Z" fill="#0061AF"/>
<path d="M113.58 2.01004C116.934 2.01004 119.678 4.76294 119.678 8.1276C119.678 11.4923 116.934 14.2452 113.58 14.2452C110.227 14.2452 107.483 11.4923 107.483 8.1276C107.527 4.76294 110.227 2.01004 113.58 2.01004Z" fill="#0061AF"/>
<path d="M133.135 7.38477C136.488 7.38477 139.232 10.1377 139.232 13.5023C139.232 16.867 136.488 19.6199 133.135 19.6199C129.781 19.6199 127.038 16.867 127.038 13.5023C127.038 10.094 129.781 7.38477 133.135 7.38477Z" fill="#0061AF"/>
<path d="M170.806 39.2834C173.071 39.2834 174.9 41.1187 174.9 43.3909C174.9 45.6632 173.071 47.4984 170.806 47.4984C168.542 47.4984 166.712 45.6632 166.712 43.3909C166.669 41.1187 168.542 39.2834 170.806 39.2834Z" fill="#0061AF"/>
<path d="M158.612 45.4447C161.051 45.4447 163.011 47.4111 163.011 49.8581C163.011 52.3051 161.051 54.2715 158.612 54.2715C156.173 54.2715 154.213 52.3051 154.213 49.8581C154.213 47.4111 156.173 45.4447 158.612 45.4447Z" fill="#0061AF"/>
<path d="M183.305 36.0499C185.309 36.0499 186.963 37.7103 186.963 39.7204C186.963 41.7305 185.309 43.3909 183.305 43.3909C181.302 43.3909 179.647 41.7305 179.647 39.7204C179.647 37.6666 181.302 36.0499 183.305 36.0499Z" fill="#0061AF"/>
<path d="M156.304 31.1558C159.047 31.1558 161.269 33.3844 161.269 36.1373C161.269 38.8902 159.047 41.1187 156.304 41.1187C153.56 41.1187 151.339 38.8902 151.339 36.1373C151.339 33.3407 153.56 31.1558 156.304 31.1558Z" fill="#0061AF"/>
<path d="M168.716 24.9072C171.285 24.9072 173.332 26.9609 173.332 29.5391C173.332 32.1172 171.285 34.1709 168.716 34.1709C166.19 34.1709 164.099 32.1172 164.099 29.5391C164.099 27.0046 166.146 24.9072 168.716 24.9072Z" fill="#0061AF"/>
<path d="M143.587 75.2896C146.461 75.2896 148.813 72.93 148.813 70.046C148.813 67.162 146.461 64.8024 143.587 64.8024C140.713 64.8024 138.361 67.162 138.361 70.046C138.361 72.93 140.713 75.2896 143.587 75.2896Z" fill="#0061AF"/>
<path d="M151.818 97.7498C154.91 97.7498 157.436 95.2154 157.436 92.1129C157.436 89.0104 154.91 86.476 151.818 86.476C148.726 86.476 146.2 89.0104 146.2 92.1129C146.156 95.2154 148.682 97.7498 151.818 97.7498Z" fill="#0061AF"/>
<path d="M127.386 78.5232C130.652 78.5232 133.309 75.8577 133.309 72.5804C133.309 69.3032 130.652 66.6377 127.386 66.6377C124.12 66.6377 121.463 69.3032 121.463 72.5804C121.463 75.8577 124.12 78.5232 127.386 78.5232Z" fill="#0061AF"/>
<path d="M113.58 110.99C116.934 110.99 119.678 108.237 119.678 104.872C119.678 101.508 116.934 98.7548 113.58 98.7548C110.227 98.7548 107.483 101.508 107.483 104.872C107.527 108.237 110.227 110.99 113.58 110.99Z" fill="#0061AF"/>
<path d="M133.135 105.659C136.488 105.659 139.232 102.906 139.232 99.5414C139.232 96.1767 136.488 93.4238 133.135 93.4238C129.781 93.4238 127.038 96.1767 127.038 99.5414C127.038 102.906 129.781 105.659 133.135 105.659Z" fill="#0061AF"/>
<path d="M158.612 67.599C161.051 67.599 163.011 65.6326 163.011 63.1856C163.011 60.7386 161.051 58.7722 158.612 58.7722C156.173 58.7722 154.213 60.7386 154.213 63.1856C154.213 65.6326 156.173 67.599 158.612 67.599Z" fill="#0061AF"/>
<path d="M183.305 76.9938C185.309 76.9938 186.963 75.3333 186.963 73.3233C186.963 71.3132 185.309 69.6527 183.305 69.6527C181.302 69.6527 179.647 71.3132 179.647 73.3233C179.647 75.3333 181.302 76.9938 183.305 76.9938Z" fill="#0061AF"/>
<path d="M168.716 88.0928C171.285 88.0928 173.332 86.0391 173.332 83.4609C173.332 80.8828 171.285 78.8291 168.716 78.8291C166.19 78.8291 164.099 80.8828 164.099 83.4609C164.099 85.9954 166.146 88.0928 168.716 88.0928Z" fill="#0061AF"/>
<rect width="39.8054" height="22.6787" fill="black" fill-opacity="0" transform="translate(195.195 47.5858)"/>
<path d="M206.082 70.2208H202.076C201.509 70.2208 201.03 69.8712 201.03 69.0847V52.7421H196.283C195.543 52.7421 195.195 52.4362 195.195 51.8244V48.6346C195.195 47.848 195.499 47.5858 196.283 47.5858H211.918C212.702 47.5858 213.007 47.848 213.007 48.6346V51.8244C213.007 52.4362 212.658 52.7421 211.918 52.7421H207.171V69.0847C207.215 69.8275 206.648 70.2208 206.082 70.2208Z" fill="#0061AF"/>
<path d="M222.501 70.2208C221.673 70.2208 221.107 69.6965 220.89 69.0847L214.183 49.4648C214.009 49.0715 214.009 48.7657 214.009 48.4598C214.009 48.0228 214.357 47.6732 214.967 47.6732H219.365C220.019 47.6732 220.454 48.0665 220.672 48.7657C223.416 57.942 223.895 59.6025 224.635 62.3991C225.375 59.6025 225.898 57.942 228.772 48.8094C228.99 48.1539 229.426 47.6732 230.166 47.6732H233.998C234.782 47.6732 235 48.1102 235 48.5035C235 48.7657 234.956 49.1589 234.826 49.5085L227.988 69.1721C227.727 69.8275 227.335 70.2645 226.508 70.2645H222.501V70.2208Z" fill="#0061AF"/>
</svg>
